<?xml version="1.0" standalone="no"?>
<svg xmlns="http://www.w3.org/2000/svg" viewBox="0 0 135.047 29" width="135.047" height="29"><g fill="#47eebe" color="#47eebe" transform="translate(0, 0) scale(0.58)"><svg width="50.0" height="50.0" x="0.0" y="0.0" viewBox="0 0 50 50"><g><g><path fill="currentColor" d="M39.439,37.342H11.181V9.083h28.259V37.342L39.439,37.342z M13.472,35.052h23.676V11.375H13.472V35.052z"></path></g><g><rect x="7.33" y="13.834" fill="currentColor" width="2.292" height="18.521"></rect></g><g><rect x="40.743" y="13.953" fill="currentColor" width="2.292" height="18.521"></rect></g><g><rect x="3.32" y="13.834" fill="currentColor" width="2.291" height="18.521"></rect></g><g><rect x="44.374" y="13.953" fill="currentColor" width="2.29" height="18.521"></rect></g><g><path fill="currentColor" d="M19.274,31.989c-2.085,0-3.781-1.793-3.781-3.993c0-2.202,1.696-3.995,3.781-3.995    s3.784,1.793,3.784,3.995C23.058,30.196,21.359,31.989,19.274,31.989z M19.274,26.29c-0.821,0-1.49,0.764-1.49,1.703    s0.669,1.702,1.49,1.702s1.493-0.763,1.493-1.702S20.095,26.29,19.274,26.29z"></path></g><g><path fill="currentColor" d="M29.436,31.989c-2.086,0-3.78-1.793-3.78-3.993c0-2.202,1.694-3.995,3.78-3.995    c2.085,0,3.783,1.793,3.783,3.995C33.219,30.196,31.521,31.989,29.436,31.989z M29.436,26.29c-0.818,0-1.488,0.764-1.488,1.703    s0.67,1.702,1.488,1.702c0.823,0,1.492-0.763,1.492-1.702S30.259,26.29,29.436,26.29z"></path></g><g><polygon fill="currentColor" points="33.188,27.6 30.896,27.6 30.896,19.256 23.058,21.332 23.058,27.6 20.767,27.6 20.767,19.569     33.188,16.277   "></polygon></g><g><polygon fill="currentColor" points="33.188,24.688 30.896,24.688 30.896,16.342 23.058,18.421 23.058,24.688 20.767,24.688     20.767,16.656 33.188,13.367   "></polygon></g></g></svg></g><line x1="41" y1="1" x2="41" y2="28" stroke="#53d71f" stroke-linecap="round"></line><path fill="#53d71f" fill-rule="nonzero" d="M0 21.32L0 1.30L7.65 1.30L7.65 3.69L3.04 3.69L3.04 9.68L6.66 9.68L6.66 12.07L3.04 12.07L3.04 21.32L0 21.32ZM13.38 21.49L13.38 21.49Q12.34 21.49 11.54 21.11Q10.73 20.72 10.18 19.90Q9.63 19.08 9.35 17.79Q9.07 16.51 9.07 14.71L9.07 14.71L9.07 11.66Q9.07 10.13 9.30 9.03Q9.53 7.93 9.90 7.19Q10.27 6.45 10.75 6.01Q11.24 5.58 11.75 5.35Q12.27 5.12 12.78 5.06Q13.29 4.99 13.72 4.99L13.72 4.99Q14.52 4.99 15.26 5.23Q16.00 5.47 16.56 6.05Q17.12 6.63 17.46 7.61Q17.79 8.58 17.79 10.03L17.79 10.03Q17.79 10.52 17.76 11.03Q17.73 11.53 17.68 12.02Q17.64 12.50 17.56 12.96Q17.48 13.42 17.40 13.80L17.40 13.80L12.05 13.80L12.05 15.45Q12.05 16.50 12.13 17.22Q12.21 17.94 12.40 18.38Q12.60 18.82 12.93 19.01Q13.27 19.21 13.77 19.21L13.77 19.21Q14.04 19.21 14.30 19.10Q14.55 18.98 14.75 18.73Q14.94 18.47 15.06 18.04Q15.18 17.61 15.18 16.98L15.18 16.98L15.18 16.48L17.65 16.48L17.65 17.10Q17.65 19.39 16.55 20.44Q15.46 21.49 13.38 21.49ZM12.05 11.81L15.02 11.81Q15.04 11.68 15.05 11.47Q15.06 11.25 15.06 11.02Q15.07 10.78 15.07 10.55Q15.07 10.32 15.07 10.16L15.07 10.16Q15.07 8.57 14.70 7.86Q14.32 7.16 13.58 7.16L13.58 7.16Q13.20 7.16 12.90 7.34Q12.61 7.52 12.42 7.95Q12.23 8.38 12.14 9.08Q12.05 9.79 12.05 10.83L12.05 10.83L12.05 11.81ZM19.66 17.94L19.66 17.94Q19.66 17.41 19.76 16.92Q19.86 16.43 19.96 16.14L19.96 16.14L22.04 16.14Q22.04 17.02 22.13 17.61Q22.22 18.20 22.42 18.55Q22.62 18.90 22.95 19.05Q23.29 19.21 23.77 19.21L23.77 19.21Q24.43 19.21 24.74 18.83Q25.04 18.46 25.04 17.96L25.04 17.96Q25.04 17.71 24.97 17.47Q24.90 17.24 24.77 17.00Q24.64 16.76 24.46 16.51Q24.27 16.27 24.04 15.97L24.04 15.97L21.87 13.42Q21.45 12.89 21.05 12.35Q20.66 11.80 20.36 11.22Q20.06 10.64 19.88 10.01Q19.70 9.38 19.70 8.67L19.70 8.67Q19.70 7.73 20.02 7.04Q20.34 6.35 20.89 5.89Q21.43 5.44 22.15 5.21Q22.86 4.99 23.66 4.99L23.66 4.99Q24.54 4.99 25.24 5.20Q25.95 5.41 26.45 5.84Q26.95 6.26 27.22 6.88Q27.49 7.51 27.49 8.34L27.49 8.34Q27.49 8.91 27.39 9.43Q27.29 9.96 27.20 10.34L27.20 10.34L25.15 10.34Q25.14 9.54 25.08 8.94Q25.02 8.34 24.86 7.95Q24.70 7.56 24.43 7.36Q24.15 7.16 23.71 7.16L23.71 7.16Q23.32 7.16 23.06 7.28Q22.80 7.41 22.65 7.61Q22.49 7.80 22.42 8.05Q22.36 8.30 22.36 8.55L22.36 8.55Q22.36 9.12 22.63 9.60Q22.90 10.08 23.34 10.64L23.34 10.64L25.71 13.42Q25.97 13.73 26.31 14.19Q26.65 14.64 26.95 15.18Q27.26 15.73 27.47 16.37Q27.68 17.02 27.68 17.72L27.68 17.72Q27.68 18.57 27.41 19.27Q27.14 19.97 26.61 20.46Q26.09 20.95 25.32 21.22Q24.55 21.49 23.57 21.49L23.57 21.49Q22.76 21.49 22.04 21.31Q21.33 21.13 20.80 20.71Q20.27 20.30 19.97 19.62Q19.66 18.94 19.66 17.94ZM32.05 21.32L32.05 3.69L28.83 3.69L28.83 1.30L38.30 1.30L38.30 3.69L35.09 3.69L35.09 21.32L32.05 21.32ZM40.16 21.32L40.16 0L43.13 0L43.13 3.80L42.97 6.56Q43.30 6.11 43.68 5.81Q44.06 5.51 44.47 5.33Q44.87 5.14 45.29 5.07Q45.70 4.99 46.11 4.99L46.11 4.99Q47.53 4.99 48.30 5.98Q49.07 6.97 49.07 8.95L49.07 8.95L49.07 21.32L46.10 21.32L46.10 9.06Q46.10 7.99 45.77 7.58Q45.45 7.16 44.81 7.16L44.81 7.16Q44.37 7.16 43.92 7.46Q43.46 7.76 43.13 8.29L43.13 8.29L43.13 21.32L40.16 21.32ZM56.20 21.49L56.20 21.49Q55.69 21.49 55.15 21.41Q54.62 21.33 54.12 21.07Q53.63 20.81 53.19 20.33Q52.75 19.85 52.42 19.07Q52.09 18.28 51.90 17.13Q51.71 15.98 51.71 14.39L51.71 14.39L51.71 11.86Q51.71 10.29 51.91 9.17Q52.10 8.05 52.44 7.29Q52.77 6.53 53.21 6.08Q53.66 5.63 54.16 5.38Q54.66 5.14 55.18 5.07Q55.71 4.99 56.21 4.99L56.21 4.99Q56.70 4.99 57.21 5.06Q57.73 5.13 58.22 5.36Q58.71 5.59 59.15 6.04Q59.59 6.49 59.92 7.25Q60.26 8.02 60.45 9.15Q60.64 10.28 60.64 11.86L60.64 11.86L60.64 14.39Q60.64 15.96 60.45 17.10Q60.25 18.23 59.91 19.02Q59.57 19.80 59.12 20.29Q58.68 20.78 58.18 21.05Q57.69 21.32 57.18 21.40Q56.67 21.49 56.20 21.49ZM56.23 19.21L56.23 19.21Q56.63 19.21 56.90 19.00Q57.18 18.80 57.35 18.33Q57.52 17.86 57.59 17.09Q57.67 16.32 57.67 15.19L57.67 15.19L57.67 11.21Q57.67 10.08 57.59 9.30Q57.52 8.53 57.35 8.06Q57.18 7.58 56.90 7.37Q56.63 7.16 56.23 7.16L56.23 7.16Q55.80 7.16 55.52 7.37Q55.23 7.58 55.04 8.06Q54.86 8.53 54.77 9.30Q54.69 10.08 54.69 11.21L54.69 11.21L54.69 15.19Q54.69 16.32 54.77 17.09Q54.86 17.86 55.04 18.33Q55.23 18.80 55.52 19.00Q55.80 19.21 56.23 19.21ZM67.50 21.50L67.50 21.50Q67.15 21.50 66.68 21.43Q66.21 21.35 65.71 21.11Q65.21 20.86 64.73 20.41Q64.25 19.96 63.87 19.21Q63.49 18.47 63.26 17.38Q63.02 16.30 63.02 14.80L63.02 14.80L63.02 7.71Q63.02 6.20 63.27 5.13Q63.52 4.05 63.93 3.32Q64.34 2.59 64.87 2.16Q65.40 1.72 65.98 1.49Q66.55 1.27 67.11 1.20Q67.68 1.13 68.16 1.13L68.16 1.13Q69.38 1.13 70.21 1.46Q71.05 1.79 71.57 2.37Q72.09 2.95 72.32 3.73Q72.55 4.50 72.55 5.37L72.55 5.37Q72.55 6.01 72.47 6.56Q72.40 7.10 72.27 7.76L72.27 7.76L69.84 7.76L69.84 6.81Q69.84 3.52 68.07 3.52L68.07 3.52Q67.59 3.52 67.24 3.68Q66.89 3.84 66.66 4.24Q66.42 4.63 66.31 5.27Q66.20 5.92 66.20 6.88L66.20 6.88L66.20 15.95Q66.20 16.89 66.31 17.51Q66.42 18.13 66.65 18.50Q66.88 18.88 67.22 19.04Q67.57 19.20 68.05 19.20L68.05 19.20Q68.55 19.20 68.92 18.93Q69.28 18.67 69.52 18.21Q69.75 17.75 69.86 17.13Q69.97 16.51 69.97 15.79L69.97 15.79L69.97 13.17L68.41 13.17L68.41 11.18L72.93 11.18L72.93 21.32L70.91 21.32L70.58 19.42Q70.01 20.53 69.26 21.02Q68.52 21.50 67.50 21.50ZM79.61 21.49L79.61 21.49Q79.09 21.49 78.56 21.41Q78.02 21.33 77.53 21.07Q77.03 20.81 76.59 20.33Q76.15 19.85 75.82 19.07Q75.49 18.28 75.30 17.13Q75.12 15.98 75.12 14.39L75.12 14.39L75.12 11.86Q75.12 10.29 75.31 9.17Q75.50 8.05 75.84 7.29Q76.17 6.53 76.62 6.08Q77.06 5.63 77.56 5.38Q78.06 5.14 78.59 5.07Q79.11 4.99 79.62 4.99L79.62 4.99Q80.10 4.99 80.61 5.06Q81.13 5.13 81.62 5.36Q82.11 5.59 82.55 6.04Q82.99 6.49 83.33 7.25Q83.66 8.02 83.85 9.15Q84.05 10.28 84.05 11.86L84.05 11.86L84.05 14.39Q84.05 15.96 83.85 17.10Q83.65 18.23 83.31 19.02Q82.97 19.80 82.52 20.29Q82.08 20.78 81.59 21.05Q81.09 21.32 80.58 21.40Q80.07 21.49 79.61 21.49ZM79.63 19.21L79.63 19.21Q80.03 19.21 80.30 19.00Q80.58 18.80 80.75 18.33Q80.92 17.86 80.99 17.09Q81.07 16.32 81.07 15.19L81.07 15.19L81.07 11.21Q81.07 10.08 80.99 9.30Q80.92 8.53 80.75 8.06Q80.58 7.58 80.30 7.37Q80.03 7.16 79.63 7.16L79.63 7.16Q79.21 7.16 78.92 7.37Q78.63 7.58 78.45 8.06Q78.26 8.53 78.18 9.30Q78.09 10.08 78.09 11.21L78.09 11.21L78.09 15.19Q78.09 16.32 78.18 17.09Q78.26 17.86 78.45 18.33Q78.63 18.80 78.92 19.00Q79.21 19.21 79.63 19.21Z" transform="translate(51, 3.842)"></path></svg>